<?xml version="1.0" encoding="UTF-8" standalone="no"?>
<svg
   version="1.0"
   width="258pt"
   height="235.5pt"
   viewBox="0 0 258 235.5"
   preserveAspectRatio="xMidYMid"
   id="svg5"
   sodipodi:docname="iconoapp.svg"
   inkscape:version="1.3 (0e150ed6c4, 2023-07-21)"
   xmlns:inkscape="http://www.inkscape.org/namespaces/inkscape"
   xmlns:sodipodi="http://sodipodi.sourceforge.net/DTD/sodipodi-0.dtd"
   xmlns="http://www.w3.org/2000/svg"
   xmlns:svg="http://www.w3.org/2000/svg">
  <defs
     id="defs5" />
  <sodipodi:namedview
     id="namedview5"
     pagecolor="#ffffff"
     bordercolor="#000000"
     borderopacity="0.25"
     inkscape:showpageshadow="2"
     inkscape:pageopacity="0.0"
     inkscape:pagecheckerboard="0"
     inkscape:deskcolor="#d1d1d1"
     inkscape:document-units="pt"
     inkscape:zoom="2.2890335"
     inkscape:cx="171.46975"
     inkscape:cy="169.72229"
     inkscape:window-width="1920"
     inkscape:window-height="1017"
     inkscape:window-x="-8"
     inkscape:window-y="101"
     inkscape:window-maximized="1"
     inkscape:current-layer="svg5"
     inkscape:clip-to-page="true" />
  <metadata
     id="metadata1">&#10;Created by potrace 1.16, written by Peter Selinger 2001-2019&#10;</metadata>
  <g
     id="g5"
     transform="translate(-45.5,-32)"
     style="display:inline;fill:#7fff2a;fill-opacity:1;stroke:#000000;stroke-opacity:1">
    <path
       d="m 131.6,39.6 c -10.9,4 -21.4,8.4 -23.3,9.6 -4.5,3.1 -8.8,9.7 -10.3,16 -3.3,13.6 6.1,27.7 20.6,30.9 5,1.1 6.3,1 13.2,-1 4.2,-1.2 12.6,-4.2 18.8,-6.7 6.2,-2.4 11.7,-4.4 12.3,-4.4 0.7,0 1.1,2.8 1.1,7.5 V 99 h -2.9 c -3.5,0 -4.1,1.3 -4.1,9.6 v 6.4 l -30.2,0.2 -30.3,0.3 -0.3,13.7 -0.3,13.8 H 83 c -7.2,0 -13.1,0.4 -13.5,1 -0.8,1.2 -0.8,48.8 0,50 0.3,0.6 3.1,1 6.1,1 4.8,0 5.4,0.2 5.4,2.1 0,4.7 1.7,5.9 8.5,5.9 H 96 v 27.4 c 0,15.3 0.4,28.6 1,30 l 0.9,2.6 -26.2,0.2 c -25.4,0.3 -26.2,0.4 -26.2,2.3 0,2 0.7,2 129,2 128.3,0 129,0 129,-2 0,-1.9 -0.8,-2 -26.2,-2.3 l -26.2,-0.2 0.9,-2.6 c 0.6,-1.4 1,-14.7 1,-30 V 203 h 6.5 c 6.8,0 8.5,-1.2 8.5,-5.9 0,-1.9 0.6,-2.1 5.4,-2.1 3,0 5.8,-0.4 6.1,-1 0.3,-0.5 0.6,-11.8 0.6,-25 0,-13.2 -0.3,-24.5 -0.6,-25 -0.4,-0.6 -6.3,-1 -13.5,-1 h -12.9 l -0.3,-13.8 -0.3,-13.7 -30.2,-0.3 L 192,115 v -6.4 c 0,-8.3 -0.6,-9.6 -4.1,-9.6 H 185 v -7.5 c 0,-4.7 0.4,-7.5 1.1,-7.5 0.6,0 6.1,2 12.3,4.4 6.2,2.5 14.6,5.5 18.8,6.7 6.9,2 8.2,2.1 13.2,1 14.5,-3.2 23.9,-17.3 20.6,-30.9 -1.5,-6.3 -5.8,-12.9 -10.3,-16 -3.7,-2.5 -43,-17.2 -46,-17.2 -3.8,0 -7.9,3.1 -9.8,7.6 l -2,4.4 h -8.4 -8.4 l -2,-4.4 c -2,-4.7 -6.1,-7.7 -10.3,-7.5 -1.3,0 -11.3,3.4 -22.2,7.5 z m 25.6,0.1 c 2.5,2.9 7.8,19.1 7.8,23.6 -0.1,5.4 -2.9,11.6 -6.8,14.9 -3.5,2.9 -26.7,11.8 -32.8,12.5 -11.7,1.5 -23.7,-10.2 -22.1,-21.6 0.7,-5.5 3.5,-10.9 7.3,-13.9 3.1,-2.5 39.8,-16.9 43.5,-17.1 0.9,-0.1 2.3,0.7 3.1,1.6 z m 58.3,5.5 c 17.5,6.4 20.5,7.8 24,11.3 6.3,6.3 8,14.5 4.6,22 -3.6,8 -12.4,13.2 -20.5,12.2 -6.1,-0.7 -29.3,-9.6 -32.8,-12.5 -3.9,-3.3 -6.7,-9.5 -6.8,-14.9 0,-4.5 5.3,-20.7 7.8,-23.6 0.8,-0.9 2,-1.7 2.6,-1.7 0.6,0 10.1,3.3 21.1,7.2 z M 186,110 v 5 H 174.5 163 v -5 -5 h 11.5 11.5 z m 56.5,10 c 0.3,0.5 1.5,1 2.6,1 1.2,0 1.9,0.7 1.9,2 0,2 -0.7,2 -72.5,2 -71.8,0 -72.5,0 -72.5,-2 0,-1.3 0.7,-2 1.9,-2 1.1,0 2.3,-0.5 2.6,-1 0.4,-0.7 24.2,-1 68,-1 43.8,0 67.6,0.3 68,1 z M 139,141.5 V 152 h -9.9 -10 l -0.3,-4.3 -0.3,-4.2 -8.2,-0.3 -8.3,-0.3 v -5.9 -6 h 18.5 18.5 z m 38,0 V 152 h -15.9 -16 l -0.3,-8.8 C 144.3,129.8 142.7,131 161.1,131 H 177 Z m 70,-4.5 v 5.9 l -8.2,0.3 -8.3,0.3 -0.3,4.2 -0.3,4.3 h -10 -9.9 V 141.5 131 H 228.5 247 Z M 87,150 c 0,1.5 5.7,1.2 6.4,-0.3 0.5,-1 0.7,-1 1.2,0 0.7,1.5 5.4,1.7 5.4,0.3 0,-0.6 2.8,-1 6.5,-1 h 6.5 v 8.5 8.5 h -6.5 -6.5 v -4.5 c 0,-4.1 -0.2,-4.5 -2.5,-4.5 -2.4,0 -2.5,0.2 -2.5,7.5 v 7.5 h 9 9 v 8.5 8.5 h -6.5 -6.5 v -5.8 c 0,-5.4 -0.1,-5.7 -2.5,-5.7 -2.2,0 -2.5,0.5 -2.6,3.5 -0.1,1.9 -0.5,4.6 -0.9,6 -0.6,1.9 -0.8,1.2 -0.9,-3.1 -0.1,-5.2 -0.3,-5.7 -2.6,-6.1 -3.3,-0.7 -3.5,-0.3 -3.5,5.9 V 189 H 80.5 74 v -8.5 -8.5 h 9.5 9.5 v -7.5 -7.5 h -3 c -2.9,0 -3,0.2 -3,4.5 V 166 H 80.5 74 v -8.5 -8.5 h 6.5 c 3.7,0 6.5,0.4 6.5,1 z m 162,0 c 0,1.4 4.7,1.2 5.4,-0.3 0.5,-1 0.7,-1 1.2,0 0.7,1.5 6.4,1.8 6.4,0.3 0,-0.6 2.8,-1 6.5,-1 h 6.5 v 8.5 8.5 h -6.5 -6.5 v -4.5 c 0,-4.3 -0.1,-4.5 -3,-4.5 h -3 v 7.5 7.5 h 9.5 9.5 v 8.5 8.5 h -6.5 -6.5 v -5.3 c 0,-6.2 -0.2,-6.6 -3.5,-5.9 -2.3,0.4 -2.5,0.9 -2.6,6.1 -0.1,4.3 -0.3,5 -0.9,3.1 -0.4,-1.4 -0.8,-4.1 -0.9,-6 -0.1,-3 -0.4,-3.5 -2.6,-3.5 -2.4,0 -2.5,0.3 -2.5,5.7 v 5.8 h -6.5 -6.5 v -8.5 -8.5 h 9 9 v -7.5 c 0,-7.3 -0.1,-7.5 -2.5,-7.5 -2.3,0 -2.5,0.4 -2.5,4.5 v 4.5 h -6.5 -6.5 v -8.5 -8.5 h 6.5 c 3.7,0 6.5,0.4 6.5,1 z m -18.8,26.2 0.3,18.3 6.3,0.3 6.2,0.3 v 3.5 c 0,2.7 0.5,3.7 2,4.1 1.9,0.5 2,1.4 2,13.4 V 229 H 174.5 102 v -12.9 c 0,-12 0.1,-12.9 2,-13.4 1.5,-0.4 2,-1.4 2,-4.1 v -3.5 l 6.3,-0.3 6.2,-0.3 0.3,-18.3 0.2,-18.2 h 55.5 55.5 z m -66.4,61.9 c 0.3,2.5 0,2.7 -4.5,3.4 -8.5,1.2 -47.5,1.7 -48.7,0.5 -0.5,-0.5 -2.7,-1 -4.8,-1 -3.6,0 -3.8,-0.2 -3.8,-3 v -3 l 30.8,0.2 30.7,0.3 z m 15.7,-1.9 c 0.2,0.7 0.5,7 0.7,14.1 l 0.3,12.7 h -6 -6 l 0.3,-12.7 c 0.2,-7.1 0.5,-13.4 0.7,-14.1 0.3,-0.7 2.2,-1.2 5,-1.2 2.8,0 4.7,0.5 5,1.2 z M 247,238 c 0,2.8 -0.2,3 -3.8,3 -2.1,0 -4.3,0.5 -4.8,1 -1.2,1.2 -40.3,0.7 -48.6,-0.5 -4.1,-0.6 -4.8,-1 -4.8,-2.9 0,-1.3 0.3,-2.6 0.7,-2.9 0.3,-0.4 14.3,-0.7 31,-0.7 H 247 Z m -91.5,14 c 0.3,0.5 2.3,1 4.3,1 3.5,0 3.5,0.1 1.9,1.7 -1.6,1.6 -4.4,1.8 -28.5,1.8 -22,0 -27.1,-0.3 -29.2,-1.5 l -2.5,-1.5 4.3,-0.3 c 2.3,-0.2 4.2,-0.7 4.2,-1.3 0,-1.3 44.7,-1.2 45.5,0.1 z m 83.5,-0.1 c 0,0.6 1.9,1.1 4.3,1.3 l 4.2,0.3 -2.5,1.5 c -2.1,1.2 -7.2,1.5 -29.2,1.5 -24.1,0 -26.9,-0.2 -28.5,-1.8 -1.6,-1.6 -1.6,-1.7 1.9,-1.7 2,0 4,-0.5 4.3,-1 0.8,-1.3 45.5,-1.4 45.5,-0.1 z"
       id="path1"
       style="fill:#7fff2a;stroke:#000000;stroke-width:0.1;fill-opacity:1;stroke-opacity:1" />
    <path
       d="m 131.4,50.4 c -1.7,0.8 -4.4,3.1 -6,5.2 -2.5,3.2 -2.9,4.6 -2.9,10 0,4.8 0.5,6.9 2.1,9.1 7.3,9.8 20.5,9.9 27.6,0.2 4.9,-6.6 2.7,-18 -4.3,-22.6 -4.7,-3.1 -12,-4 -16.5,-1.9 z"
       id="path2"
       style="fill:#7fff2a;stroke:#000000;stroke-width:0.1;fill-opacity:1;stroke-opacity:1" />
    <path
       d="m 202.9,51.3 c -5.9,3.1 -9.2,9.2 -8.6,16 1.4,15.5 20.6,20.2 30.1,7.4 1.6,-2.2 2.1,-4.3 2.1,-9.1 0,-5.4 -0.4,-6.8 -2.9,-10 -5.1,-6.8 -12.9,-8.4 -20.7,-4.3 z"
       id="path3"
       style="fill:#7fff2a;stroke:#000000;stroke-width:0.1;fill-opacity:1;stroke-opacity:1" />
    <path
       d="m 148,141.5 c 0,8.2 10.1,11.7 15.4,5.4 1.5,-1.8 2.6,-4.3 2.6,-6 V 138 h -9 -9 z"
       id="path4"
       style="fill:#7fff2a;stroke:#000000;stroke-width:0.1;fill-opacity:1;stroke-opacity:1" />
    <path
       d="m 227.2,207 c -4.3,2.7 -5.8,6 -4.6,10.8 0.7,2.9 1.7,4.1 4.6,5.5 3.3,1.6 4,1.7 7.1,0.3 4.2,-1.7 5.7,-4.2 5.7,-9.4 0,-6.9 -6.9,-10.8 -12.8,-7.2 z"
       id="path5"
       style="fill:#7fff2a;stroke:#000000;stroke-width:0.1;fill-opacity:1;stroke-opacity:1" />
  </g>
</svg>
