<?xml version="1.0" encoding="UTF-8" standalone="no"?>
<!-- Created with Inkscape (http://www.inkscape.org/) -->

<svg
   version="1.1"
   id="svg1"
   width="138.17526"
   height="159.22067"
   viewBox="0 0 138.17526 159.22067"
   sodipodi:docname="logo_lucid.svg"
   inkscape:version="1.3 (0e150ed6c4, 2023-07-21)"
   xmlns:inkscape="http://www.inkscape.org/namespaces/inkscape"
   xmlns:sodipodi="http://sodipodi.sourceforge.net/DTD/sodipodi-0.dtd"
   xmlns="http://www.w3.org/2000/svg"
   xmlns:svg="http://www.w3.org/2000/svg">
  <defs
     id="defs1" />
  <sodipodi:namedview
     id="namedview1"
     pagecolor="#ffffff"
     bordercolor="#000000"
     borderopacity="0.25"
     inkscape:showpageshadow="2"
     inkscape:pageopacity="0.0"
     inkscape:pagecheckerboard="0"
     inkscape:deskcolor="#d1d1d1"
     inkscape:zoom="2.565625"
     inkscape:cx="103.48356"
     inkscape:cy="97.637028"
     inkscape:window-width="1920"
     inkscape:window-height="1017"
     inkscape:window-x="-8"
     inkscape:window-y="108"
     inkscape:window-maximized="1"
     inkscape:current-layer="g1" />
  <g
     inkscape:groupmode="layer"
     inkscape:label="Image"
     id="g1"
     transform="translate(-12.378704,-0.8941883)">
    <g
       id="g9">
      <g
         id="g8"
         transform="translate(-166.04141,5.8465286)">
        <path
           style="display:inline;fill:#fdc971"
           d="m 244.75537,132.96331 c -1.408,-0.81297 -6.592,-3.81379 -11.52,-6.66847 -17.3621,-10.0575 -25.97836,-15.0409 -31.60162,-18.27747 l -5.68162,-3.27016 1.04162,-0.63594 c 3.69837,-2.25794 15.71911,-9.018261 16.03567,-9.018261 0.38807,0 3.19819,1.60072 26.12595,14.882031 6.952,4.02707 15.53717,8.9929 19.07817,11.03516 l 6.43817,3.71322 -1.15817,0.64534 c -0.637,0.35494 -4.44346,2.5441 -8.45881,4.8648 -4.01534,2.3207 -7.39934,4.21685 -7.52,4.21367 -0.12065,-0.003 -1.37136,-0.67094 -2.77936,-1.48392 z M 187.07598,39.778634 c -4.44366,-2.577094 -8.07966,-4.780488 -8.08,-4.896431 -7.7e-4,-0.264824 16.33809,-9.657538 16.78854,-9.65122 0.18197,0.0026 4.04432,2.139942 8.583,4.749755 6.51598,3.746786 8.16544,4.824939 7.84,5.124531 -0.78462,0.722304 -16.18508,9.427599 -16.61772,9.393365 -0.23894,-0.01891 -4.07015,-2.142907 -8.51382,-4.72 z m 105.03939,0.776326 c -3.696,-2.149249 -11.4,-6.616538 -17.12,-9.927307 -5.72,-3.31077 -14.432,-8.354745 -19.36,-11.208833 -4.928,-2.854088 -12.531,-7.248779 -16.89555,-9.7659792 -5.75354,-3.31828 -7.83948,-4.673394 -7.58615,-4.9282806 0.19217,-0.1933533 3.96614,-2.4497549 8.38661,-5.0142259 l 8.03721,-4.6626746 7.54894,4.3787146 c 20.02938,11.6179147 55.29033,31.9986917 58.67207,33.9123647 1.93866,1.097059 2.39473,1.486614 2.08,1.776636 -0.74993,0.691045 -16.2216,9.417912 -16.63398,9.382473 -0.22503,-0.01934 -3.43315,-1.793639 -7.12915,-3.942888 z M 230.33741,15.093009 c 0,-5.3680002 0.0438,-7.5640002 0.0973,-4.88 0.0535,2.684 0.0535,7.076 0,9.76 -0.0535,2.684 -0.0973,0.488 -0.0973,-4.88 z"
           id="path6" />
        <path
           style="fill:#f76911"
           d="m 239.47537,149.82617 c -4.136,-2.42119 -13.064,-7.60806 -19.84,-11.52637 -6.776,-3.91831 -17.36,-10.03952 -23.52,-13.60268 -6.16,-3.56316 -12.568,-7.26149 -14.24,-8.2185 l -3.04,-1.74003 -0.0813,-39.742789 c -0.0447,-21.858536 -0.007,-39.742792 0.0842,-39.742792 0.091,0 3.29559,1.81559 7.12125,4.034645 3.82566,2.219054 7.56775,4.385125 8.31575,4.813489 l 1.36,0.778844 v 29.746511 c 0,16.360581 -0.01,29.835032 -0.0212,29.943222 -0.0117,0.10818 2.11233,1.42433 4.72,2.92476 7.71383,4.43848 30.69016,17.7316 39.14121,22.64542 l 7.84,4.55854 0.0846,9.79729 c 0.0465,5.3885 -0.0255,9.78273 -0.16,9.76494 -0.13454,-0.0178 -3.62863,-2.01331 -7.76462,-4.4345 z m 56.8,-27.08365 c -1.584,-0.95151 -5.36175,-3.1339 -8.39499,-4.84976 l -5.51499,-3.11975 -0.005,-29.985886 -0.005,-29.985885 -2.16,-1.247914 c -1.188,-0.686353 -8.136,-4.704618 -15.44,-8.929478 -7.304,-4.22486 -17.9922,-10.40165 -23.75155,-13.726201 l -10.47155,-6.044637 -0.008,-9.851259 -0.008,-9.8512592 0.72,0.38173 c 0.396,0.209952 5.112,2.931138 10.48,6.0470812 5.368,3.115942 14.368,8.328889 20,11.584326 5.632,3.255437 16.396,9.484154 23.92,13.841592 l 13.68,7.922616 v 39.802587 c 0,21.891427 -0.036,39.788977 -0.08,39.772347 -0.044,-0.0166 -1.376,-0.80875 -2.96,-1.76025 z"
           id="path4" />
        <path
           style="fill:#cb4c00"
           d="m 247.47537,144.77306 c 0,-7.18518 0.10299,-10.02593 0.36944,-10.19061 0.24289,-0.15011 0.28957,-0.0744 0.13627,0.22112 -0.12824,0.24719 -0.0283,0.19968 0.2222,-0.10559 0.25045,-0.30526 0.54913,-0.46126 0.66373,-0.34666 0.1146,0.11459 0.20836,0.0319 0.20836,-0.18386 0,-0.21572 0.13875,-0.30647 0.30833,-0.20166 0.16958,0.1048 0.60158,-0.1027 0.96,-0.46112 0.35842,-0.35842 0.72367,-0.65167 0.81167,-0.65167 0.088,0 0.3125,0 0.49888,0 0.18639,0 0.25091,-0.14235 0.14338,-0.31633 -0.11187,-0.18103 0.0158,-0.23527 0.29842,-0.1268 0.29057,0.1115 0.57471,-0.021 0.69015,-0.32183 0.10793,-0.28125 0.31989,-0.43494 0.47103,-0.34153 0.15114,0.0934 0.54405,-0.0874 0.87313,-0.40184 0.32909,-0.31442 0.80234,-0.61558 1.05168,-0.66926 0.24933,-0.0537 0.63333,-0.33319 0.85333,-0.62116 0.22,-0.28796 0.4,-0.42035 0.4,-0.29419 0,0.12615 0.432,0.006 0.96,-0.26706 0.528,-0.27304 0.96,-0.64524 0.96,-0.8271 0,-0.18187 0.13875,-0.24492 0.30833,-0.14011 0.16958,0.1048 0.58958,-0.0907 0.93333,-0.43445 0.34375,-0.34375 0.70901,-0.54101 0.81167,-0.43834 0.10267,0.10267 0.18667,0.0102 0.18667,-0.20555 0,-0.21572 0.14502,-0.3026 0.32226,-0.19305 0.17724,0.10954 0.40833,-0.0251 0.51353,-0.29928 0.1052,-0.27414 0.32018,-0.41877 0.47774,-0.3214 0.15756,0.0974 0.28647,0.0161 0.28647,-0.18072 0,-0.19677 0.144,-0.26877 0.32,-0.16 0.176,0.10877 0.32,0.0453 0.32,-0.14111 0,-0.18639 0.216,-0.33889 0.48,-0.33889 0.264,0 0.48,-0.1525 0.48,-0.33889 0,-0.18638 0.1317,-0.25749 0.29267,-0.158 0.16097,0.0995 0.3656,-2e-5 0.45474,-0.22112 0.0891,-0.22109 0.17343,4.10651 0.18733,9.6169 0.0166,6.60408 -0.0838,9.95147 -0.29474,9.82111 -0.176,-0.10877 -0.32,-0.0763 -0.32,0.0721 0,0.29216 -1.55773,1.29277 -2.08,1.3361 -0.176,0.0146 -0.55983,0.23189 -0.85296,0.48287 -0.29312,0.25098 -0.61712,0.37216 -0.72,0.26929 -0.10287,-0.10286 -0.18704,-0.0105 -0.18704,0.20519 0,0.21572 -0.13875,0.30647 -0.30833,0.20166 -0.16958,-0.1048 -0.60158,0.1027 -0.96,0.46112 -0.35842,0.35842 -0.65167,0.57597 -0.65167,0.48345 0,-0.0925 -0.432,0.0552 -0.96,0.32822 -0.528,0.27304 -0.96,0.64524 -0.96,0.8271 0,0.18187 -0.13875,0.24492 -0.30833,0.14011 -0.16958,-0.1048 -0.57758,0.0667 -0.90667,0.38112 -0.32908,0.31442 -0.80233,0.61558 -1.05167,0.66926 -0.24933,0.0537 -0.63333,0.33319 -0.85333,0.62116 -0.22,0.28796 -0.4,0.42035 -0.4,0.29419 0,-0.12615 -0.432,-0.006 -0.96,0.26706 -0.528,0.27304 -0.96,0.64524 -0.96,0.8271 0,0.18187 -0.13875,0.24492 -0.30833,0.14011 -0.16958,-0.1048 -0.57758,0.0667 -0.90667,0.38112 -0.32908,0.31442 -0.80233,0.61558 -1.05167,0.66926 -0.24933,0.0537 -0.63333,0.33319 -0.85333,0.62116 -0.32265,0.42232 -0.4,-1.40298 -0.4,-9.4387 z m 51.8449,-60.018936 c -0.003,-23.429266 0.11352,-39.865699 0.28157,-39.761838 0.15756,0.09738 0.37695,-0.05874 0.48753,-0.346916 0.11059,-0.28818 0.28682,-0.43821 0.39163,-0.3334 0.10481,0.10481 0.40103,-0.0199 0.65826,-0.27714 0.25724,-0.257237 0.58501,-0.395207 0.72838,-0.3066 0.14337,0.08861 0.34674,-0.0632 0.45194,-0.337341 0.1052,-0.274145 0.33629,-0.408819 0.51353,-0.299277 0.17724,0.109542 0.32226,0.03817 0.32226,-0.158603 0,-0.196774 0.144,-0.268774 0.32,-0.16 0.176,0.108774 0.32,0.02127 0.32,-0.194448 0,-0.21572 0.0938,-0.298457 0.20836,-0.183859 0.1146,0.114597 0.41328,-0.0414 0.66373,-0.346667 0.30385,-0.370348 0.38634,-0.395312 0.24791,-0.07503 -0.13843,0.320286 -0.0559,0.295322 0.24791,-0.07503 0.25045,-0.305264 0.54913,-0.461264 0.66373,-0.346667 0.1146,0.114598 0.20836,0.03186 0.20836,-0.183859 0,-0.21572 0.13875,-0.306468 0.30833,-0.201662 0.16958,0.104807 0.57758,-0.06669 0.90666,-0.381114 0.32909,-0.31442 0.80234,-0.615586 1.05168,-0.669258 0.24933,-0.05367 0.63333,-0.333195 0.85333,-0.621162 0.22,-0.287966 0.4,-0.420354 0.4,-0.294196 0,0.126159 0.432,0.006 0.96,-0.267056 0.528,-0.273039 0.96,-0.645236 0.96,-0.827103 0,-0.181867 0.13875,-0.244917 0.30833,-0.140111 0.16958,0.104807 0.57758,-0.0667 0.90666,-0.381114 0.32909,-0.31442 0.80234,-0.615586 1.05168,-0.669258 0.24933,-0.05367 0.59785,-0.269673 0.77449,-0.48 0.17663,-0.210328 0.46463,-0.407745 0.64,-0.438705 0.17536,-0.03096 0.57084,-0.154366 0.87884,-0.274236 0.53148,-0.206844 0.56,1.78272 0.56,39.059596 v 39.27754 l -0.78025,0.72311 c -0.42914,0.39771 -0.86114,0.64223 -0.96,0.54336 -0.0989,-0.0989 -0.17975,-0.003 -0.17975,0.21247 0,0.21572 -0.12219,0.3167 -0.27154,0.2244 -0.14934,-0.0923 -0.56602,0.10653 -0.92593,0.44185 -0.35992,0.33531 -0.74173,0.52233 -0.84847,0.4156 -0.10673,-0.10674 -0.19406,-0.0176 -0.19406,0.19815 0,0.21572 -0.144,0.30322 -0.32,0.19445 -0.176,-0.10877 -0.32,-0.0453 -0.32,0.14111 0,0.18639 -0.19397,0.33889 -0.43104,0.33889 -0.23707,0 -0.76762,0.29192 -1.17901,0.64871 -0.41138,0.3568 -1.08142,0.73241 -1.48896,0.83469 -0.40754,0.10229 -0.74099,0.32287 -0.74099,0.49018 0,0.1673 -0.144,0.21519 -0.32,0.10642 -0.176,-0.10877 -0.32,-0.0368 -0.32,0.16 0,0.19677 -0.14502,0.26815 -0.32226,0.1586 -0.17724,-0.10954 -0.40833,0.0251 -0.51353,0.29928 -0.1052,0.27414 -0.32018,0.41877 -0.47774,0.3214 -0.15756,-0.0974 -0.28647,-0.016 -0.28647,0.18072 0,0.19677 -0.13875,0.27202 -0.30833,0.16721 -0.16958,-0.1048 -0.58958,0.0907 -0.93333,0.43445 -0.34375,0.34375 -0.70901,0.54101 -0.81167,0.43834 -0.10267,-0.10267 -0.18667,-0.0102 -0.18667,0.20555 0,0.21572 -0.13875,0.30647 -0.30833,0.20166 -0.16958,-0.1048 -0.57758,0.0667 -0.90666,0.38112 -0.32909,0.31442 -0.80234,0.61558 -1.05168,0.66926 -0.24933,0.0537 -0.63333,0.33319 -0.85333,0.62116 -0.22,0.28796 -0.40221,0.38805 -0.4049,0.22241 -0.003,-0.16564 -0.14449,-0.0852 -0.3151,0.17884 -0.20119,0.31132 -0.31192,-13.55556 -0.3151,-39.458884 z M 195.63537,74.565809 c 0,-17.430695 0.11863,-29.677255 0.28647,-29.573523 0.15756,0.09738 0.37254,-0.04725 0.47774,-0.321397 0.1052,-0.274145 0.33629,-0.408819 0.51353,-0.299277 0.17724,0.109542 0.32226,0.03817 0.32226,-0.158603 0,-0.196774 0.144,-0.268774 0.32,-0.16 0.176,0.108774 0.32,0.03677 0.32,-0.16 0,-0.196774 0.12891,-0.2781 0.28647,-0.180723 0.15756,0.09738 0.37254,-0.04725 0.47774,-0.321397 0.10667,-0.277985 0.35527,-0.397084 0.56207,-0.269274 0.20477,0.126552 0.56401,-0.03504 0.80226,-0.360879 0.2373,-0.324528 0.43146,-0.463005 0.43146,-0.307727 0,0.155278 0.22668,0.0028 0.50373,-0.338839 0.27705,-0.341638 0.41037,-0.405161 0.29627,-0.141161 -0.13843,0.320286 -0.0559,0.295322 0.24791,-0.07503 0.25045,-0.305264 0.54913,-0.461264 0.66373,-0.346667 0.1146,0.114598 0.20836,0.03186 0.20836,-0.183859 0,-0.21572 0.13875,-0.306468 0.30833,-0.201662 0.16958,0.104807 0.60158,-0.102695 0.96,-0.461114 0.35842,-0.358416 0.72367,-0.651668 0.81167,-0.651668 0.088,0 0.3125,0 0.49888,0 0.18639,0 0.25091,-0.142351 0.14338,-0.316335 -0.11612,-0.187899 0.0274,-0.230782 0.35361,-0.105619 0.41261,0.15833 0.48354,0.09775 0.28532,-0.243666 -0.14509,-0.249909 -0.15045,-0.352123 -0.0119,-0.227142 0.31699,0.285985 2.09073,-0.608499 2.09073,-1.054341 0,-0.181867 0.13875,-0.244917 0.30833,-0.140111 0.16958,0.104807 0.60158,-0.102695 0.96,-0.461114 0.35842,-0.35842 0.65167,-0.575974 0.65167,-0.483454 0,0.09252 0.432,-0.05518 0.96,-0.328218 0.528,-0.273039 0.96,-0.606094 0.96,-0.74012 0,-0.134027 0.29011,-0.265539 0.64469,-0.292248 0.64253,-0.0484 0.64441,0.05089 0.56,29.611514 -0.0806,28.213386 -0.11252,29.660096 -0.65534,29.660466 -0.31386,2.13e-4 -0.68996,0.192688 -0.83578,0.427718 -0.14582,0.23503 -0.35702,0.41503 -0.46935,0.4 -0.63713,-0.0853 -0.85985,0.008 -0.68649,0.289 0.11188,0.18103 -0.0158,0.23527 -0.29841,0.1268 -0.29057,-0.1115 -0.57472,0.021 -0.69015,0.32183 -0.10793,0.28125 -0.31989,0.43494 -0.47103,0.34153 -0.15114,-0.0934 -0.54405,0.0874 -0.87314,0.40184 -0.32908,0.31442 -0.80233,0.61558 -1.05167,0.66926 -0.24933,0.0537 -0.63333,0.33319 -0.85333,0.62116 -0.22,0.28796 -0.4,0.42035 -0.4,0.29419 0,-0.12615 -0.432,-0.006 -0.96,0.26706 -0.528,0.27304 -0.96,0.64524 -0.96,0.8271 0,0.181871 -0.13875,0.244921 -0.30833,0.140111 -0.16958,-0.104801 -0.57758,0.0667 -0.90667,0.38112 -0.32908,0.31442 -0.80233,0.61558 -1.05167,0.66926 -0.24933,0.0537 -0.61157,0.30343 -0.80497,0.55502 -0.1934,0.25159 -0.4454,0.36368 -0.56,0.24908 -0.1146,-0.11459 -0.20836,-0.0319 -0.20836,0.18386 0,0.21572 -0.14502,0.3026 -0.32226,0.19305 -0.17724,-0.10954 -0.40833,0.0251 -0.51353,0.29928 -0.1052,0.27414 -0.32018,0.41877 -0.47774,0.3214 -0.15756,-0.0974 -0.28647,-0.016 -0.28647,0.18072 0,0.19677 -0.144,0.26877 -0.32,0.16 -0.176,-0.10877 -0.32,-0.0368 -0.32,0.16 0,0.19677 -0.1317,0.27638 -0.29267,0.17689 -0.16097,-0.0995 -0.34877,-0.0126 -0.41735,0.19316 -0.0686,0.20572 -0.36887,0.40987 -0.66733,0.45368 -0.50688,0.0744 -0.54265,-1.88137 -0.54265,-29.670931 z"
           id="path3" />
      </g>
    </g>
  </g>
</svg>
