<?xml version="1.0" encoding="UTF-8" standalone="no"?>
<!-- Created with Inkscape (http://www.inkscape.org/) -->

<svg
   version="1.1"
   id="svg1"
   width="926"
   height="269"
   viewBox="0 0 926 269"
   sodipodi:docname="wall-e_Buscador_plano.svg"
   inkscape:version="1.3 (0e150ed6c4, 2023-07-21)"
   xmlns:inkscape="http://www.inkscape.org/namespaces/inkscape"
   xmlns:sodipodi="http://sodipodi.sourceforge.net/DTD/sodipodi-0.dtd"
   xmlns="http://www.w3.org/2000/svg"
   xmlns:svg="http://www.w3.org/2000/svg">
  <defs
     id="defs1" />
  <sodipodi:namedview
     id="namedview1"
     pagecolor="#ffffff"
     bordercolor="#000000"
     borderopacity="0.25"
     inkscape:showpageshadow="2"
     inkscape:pageopacity="0.0"
     inkscape:pagecheckerboard="0"
     inkscape:deskcolor="#d1d1d1"
     inkscape:zoom="1.3142549"
     inkscape:cx="456.15201"
     inkscape:cy="134.29663"
     inkscape:window-width="1920"
     inkscape:window-height="1017"
     inkscape:window-x="-8"
     inkscape:window-y="108"
     inkscape:window-maximized="1"
     inkscape:current-layer="g1" />
  <g
     inkscape:groupmode="layer"
     inkscape:label="Image"
     id="g1">
    <g
       id="g6"
       transform="translate(11.239112,-13.521771)">
      <path
         style="fill:#fdbf01"
         d="m 404.57936,250.59215 c -7.60075,-1.87836 -13.32224,-7.48069 -15.28985,-14.97141 -1.39734,-5.31968 -1.54962,-171.165774 -0.16338,-177.93171 3.24034,-15.815404 9.11259,-20.150012 27.31376,-20.161679 16.68768,-0.0107 23.8979,3.354191 26.87336,12.541347 3.43871,10.617478 2.15953,128.713292 -1.52685,140.962222 -1.92945,6.41108 -2.90985,6.25194 15.48952,2.51423 26.94048,-5.47279 32.31782,-2.99431 36.52024,16.83264 4.5242,21.34507 0.25049,35.21857 -11.87611,38.55276 -5.88874,1.6191 -71.78405,3.03481 -77.34069,1.6616 z"
         id="path5" />
      <path
         style="fill:#6eab45"
         d="m 655.8943,172.08071 c -8.54716,-3.08658 -12.15519,-10.07959 -12.15519,-23.55894 0,-24.41979 1.24405,-25.04958 50.42338,-25.52622 40.68088,-0.39427 43.44079,-0.10092 48.00984,5.10295 7.49128,8.53209 5.37396,36.38341 -3.25518,42.81874 -3.64693,2.71976 -75.90906,3.73243 -83.02285,1.16347 z"
         id="path4" />
      <path
         style="fill:#2c73b4"
         d="M 42.421727,249.61998 C 27.02082,244.30087 20.215327,225.32757 13.332792,168.52177 10.776073,147.41961 9.8408939,127.34745 9.7918851,92.521774 l -0.052772,-37.5 2.6291919,-5.606964 c 4.957189,-10.571604 14.818473,-14.237119 29.476758,-10.956739 15.735504,3.521452 18.098735,14.377985 23.033338,105.813699 0.693859,12.85687 1.196134,12.80284 4.656967,-0.50093 6.620954,-25.45157 22.531338,-73.284609 26.278312,-79.003213 3.584345,-5.470402 17.10809,-7.016952 23.18887,-2.651837 6.35928,4.565033 18.49787,37.599824 30.7393,83.65598 2.94872,11.09404 3.49726,8.03281 3.49726,-19.51706 0,-72.157407 4.45819,-87.100072 26.40684,-88.508651 23.37033,-1.499816 27.28845,4.722207 26.28487,41.740712 -0.89368,32.964409 -2.92576,49.425339 -15.30431,123.972849 -6.79637,40.92985 -9.5725,45.99591 -26.12509,47.67465 -26.64495,2.7023 -35.46499,-9.02088 -52.74977,-70.1125 -2.95664,-10.45 -5.80492,-20.125 -6.32952,-21.5 l -0.9538,-2.5 -1.09453,2.5 c -0.60199,1.375 -3.843399,12.625 -7.203126,25 -12.733511,46.90179 -16.165251,55.25567 -25.060632,61.00503 -9.363458,6.05189 -19.02558,7.43046 -28.688315,4.09318 z m 483.411093,-0.0936 c -4.21896,-1.32863 -9.30384,-6.6861 -11.33134,-11.93879 -2.77507,-7.18947 -2.70329,-175.591796 0.0786,-184.384627 3.90489,-12.342352 9.03435,-15.151876 27.65904,-15.149505 27.47298,0.0035 27.38132,-0.286699 26.72888,84.619812 -0.44281,57.62572 -0.78213,63.31701 -4.30738,72.24703 -0.90646,2.29622 2.15646,2.05936 18.0785,-1.39806 24.51956,-5.32434 30.57194,-2.51899 34.98948,16.21804 4.38992,18.61983 0.64533,34.1533 -9.29877,38.57369 -4.23615,1.88307 -77.07242,2.9522 -82.597,1.21241 z"
         id="path3" />
      <path
         style="fill:#fe0000"
         d="m 787.48678,252.69377 c -15.36322,-5.45881 -15.41701,-5.84812 -15.0419,-108.86594 l 0.29423,-80.806056 2.32769,-5.765598 c 3.04158,-7.533895 6.26572,-11.235572 11.45075,-13.146772 11.51845,-4.245691 81.75464,-9.173243 87.60809,-6.14631 12.05323,6.232968 18.94687,31.096747 12.06728,43.523928 -4.37949,7.911038 -7.0484,8.664805 -38.95381,11.001527 -7.975,0.584082 -16.20245,1.32258 -18.28322,1.641107 l -3.78323,0.579141 0.58281,7.656493 c 0.32054,4.21106 0.80589,9.11898 1.07854,10.90648 l 0.49573,3.25 19.20469,0.022 c 23.26438,0.0266 25.96749,0.80774 29.81058,8.61462 4.72663,9.60173 2.93637,30.21693 -3.27891,37.75714 l -2.9726,3.60627 h -21.56313 -21.56313 l 0.66838,11.75 c 0.3676,6.4625 0.92987,13.6625 1.24948,16 l 0.5811,4.25 h 11.27559 11.27559 l 5.86087,-6.08669 c 8.99317,-9.33969 12.0942,-10.36954 22.19346,-7.37038 12.44817,3.69671 15.70362,9.54873 15.55238,27.95707 -0.21429,26.0837 -5.21649,34.48938 -23.38498,39.29605 -9.51418,2.51709 -77.87293,2.82031 -84.75233,0.37595 z m -454.05162,-2.00001 c -9.87613,-3.54007 -15.07493,-11.08857 -18.34071,-26.63019 -1.04498,-4.97299 -2.24588,-10.6168 -2.66865,-12.5418 l -0.76868,-3.5 h -18.94158 -18.94157 l -1.7602,11.29782 c -3.68853,23.67481 -11.91933,31.67661 -30.63669,29.78434 -29.53296,-2.98571 -32.3454,-19.1146 -15.65343,-89.76977 22.49048,-95.199615 38.07601,-120.806063 73.51546,-120.783153 38.54987,0.02492 50.2893,18.714336 64.36524,102.470763 15.48543,92.14344 15.36765,103.20345 -1.16066,108.99003 -7.51775,2.63198 -22.58046,2.98609 -29.00853,0.68196 z m -27.72554,-93.12427 c 2.07925,-3.36429 -3.06383,-45.06961 -5.9088,-47.91458 -4.69092,-4.69092 -19.52594,38.6998 -16.1971,47.37463 0.6654,1.734 21.06006,2.23215 22.1059,0.53995 z"
         id="path2" />
    </g>
  </g>
</svg>
